<svg xmlns="http://www.w3.org/2000/svg" viewBox="0 0 32 32.01"><defs><style>.cls-1{fill:#ec1e26;}.cls-2{fill:#5bc7d6;}.cls-3{fill:#f59223;}</style></defs><g id="Layer_2" data-name="Layer 2"><g id="Layer_1-2" data-name="Layer 1"><polygon class="cls-1" points="25.35 13.15 32 14.19 32 13.21 25.5 12.19 25.35 13.15"/><polygon class="cls-1" points="23.17 10.53 24.33 3.09 26.86 3.48 25.69 10.93 32 11.92 32 0 22.43 0 22.43 10.42 23.17 10.53"/><path class="cls-1" d="M24.74,17l-.34,2.21A34.55,34.55,0,0,0,32,24.73V22.07A35.23,35.23,0,0,1,24.74,17"/><path class="cls-1" d="M32,21.49v-6l-6.85-1.08-.31,2A34.83,34.83,0,0,0,32,21.49"/><path class="cls-1" d="M24.3,19.84l-1.87,12V32H32V25.31a34.92,34.92,0,0,1-7.7-5.47"/><path class="cls-2" d="M.75,7.69c5.55,2.5,5.86,2,5.86,2A3.31,3.31,0,0,1,8.09,7.92,4.32,4.32,0,0,1,9.58,7.6V0H0V7.34l.75.35"/><path class="cls-2" d="M8.15,9.14a2.77,2.77,0,0,1,1.43-.31V32H0v-.19c3.44-6.54,7.08-21.11,7.08-21.11s.4-1.24,1.07-1.57"/><path class="cls-2" d="M2.43,21.71c-.13.36.07.78.12,1.18.23-.69.47-1.43.71-2.2-.23.36-.69.61-.83,1"/><path class="cls-2" d="M3.28,18.88c-.14.43.14.92.12,1.37.28-.87.56-1.75.82-2.61-.14.49-.77.75-.94,1.24"/><path class="cls-2" d="M1.18,10.71l-.56,2a2.33,2.33,0,0,1,2.18-.08A2.89,2.89,0,0,0,1.12,13a2.46,2.46,0,0,0-.84.86A1.77,1.77,0,0,0,0,15.14,3.91,3.91,0,0,1,.13,17c0,.42.24.52.56-.36C.88,16.1.43,15.47.53,15a2.49,2.49,0,0,1,1.28-1.71,2.44,2.44,0,0,1,2.41-.19,3,3,0,0,0-1.68.41,2.49,2.49,0,0,0-1.28,1.71c-.1.51.22,1.07.09,1.57S.58,17.52.4,18s.23,1.07.1,1.57a1.07,1.07,0,0,1-.23.4,1.16,1.16,0,0,0-.27.76v2.12c0,.24.17.11.22.05a.76.76,0,0,0,.15-.28c.15-.5-.08-1.16.09-1.65s.63-.68.76-1.18S1,18.72,1.13,18.23s.82-.76,1-1.26S1.89,15.91,2,15.4a2.47,2.47,0,0,1,1.29-1.71,2.47,2.47,0,0,1,2.24-.26l.16-.52.21-.72a25,25,0,0,1-4.7-1.48"/><path class="cls-2" d="M2.71,15.62c-.1.51.22,1.06.09,1.57S2,18,1.86,18.45,2.08,19.52,2,20s-.78.77-.95,1.26.25,1.07.1,1.57-.8.76-.95,1.26.22,1.07.09,1.57a.51.51,0,0,1-.07.17,1.29,1.29,0,0,0-.17.6v.18a.15.15,0,0,0,.26.1c.26-.27.59-.5.68-.84.13-.5-.24-1.07-.09-1.57s.8-.76,1-1.26S1.53,22,1.7,21.49s.82-.76,1-1.26-.26-1.08-.09-1.57.81-.76.94-1.26-.19-1.06-.09-1.57a2.49,2.49,0,0,1,1.28-1.71,4.35,4.35,0,0,1,.7-.29l.1-.33a3.06,3.06,0,0,0-1.5.41,2.49,2.49,0,0,0-1.28,1.71"/><path class="cls-2" d="M4.14,16.05c-.1.51.22,1.06.09,1.56l.93-3,0-.12a2.43,2.43,0,0,0-1.05,1.57"/><polygon class="cls-3" points="11.21 0 11.21 0.56 12.84 8.16 13.42 8.22 18.89 8.72 18.89 10.61 14.03 13.75 14.79 17.32 18.89 17.7 18.89 19.26 15.66 21.35 17.93 32 20.79 32 20.79 0 11.21 0"/><polygon class="cls-3" points="15.53 20.74 16.79 19.93 16.66 19.3 15.39 20.12 15.53 20.74"/><polygon class="cls-3" points="17.32 19.59 18.31 18.95 18.31 18.23 17.18 18.96 17.32 19.59"/><polygon class="cls-3" points="14.62 22.02 16.75 32 17.34 32 15.14 21.69 14.62 22.02"/><polygon class="cls-3" points="15.69 11.99 18.31 10.3 18.31 9.58 15.55 11.36 15.69 11.99"/><polygon class="cls-3" points="14.87 20.45 14.35 20.79 14.49 21.42 15.01 21.08 14.87 20.45"/><polygon class="cls-3" points="12.73 13.19 12.86 13.82 13.38 13.48 13.25 12.85 12.73 13.19"/><polygon class="cls-3" points="12.99 14.42 13.59 17.2 14.19 17.26 13.51 14.09 12.99 14.42"/><polygon class="cls-3" points="13.77 12.51 13.9 13.14 15.17 12.32 15.03 11.7 13.77 12.51"/></g></g></svg>